Coordinates
version=1
nRows=9
nColumns=36
inDegrees=yes

Units are S.I. units (second, meters, Newtons, ...)
If the header above contains a line with 'inDegrees', this indicates whether rotational values are in degrees (yes) or radians (no).

endheader
time	pelvis_tilt	pelvis_list	pelvis_rotation	pelvis_tx	pelvis_ty	pelvis_tz	hip_flexion_r	hip_adduction_r	hip_rotation_r	knee_angle_r	knee_angle_r_beta	ankle_angle_r	subtalar_angle_r	mtp_angle_r	hip_flexion_l	hip_adduction_l	hip_rotation_l	knee_angle_l	knee_angle_l_beta	ankle_angle_l	subtalar_angle_l	mtp_angle_l	lumbar_extension	lumbar_bending	lumbar_rotation	arm_flex_r	arm_add_r	arm_rot_r	elbow_flex_r	pro_sup_r	arm_flex_l	arm_add_l	arm_rot_l	elbow_flex_l	pro_sup_l
      4.92500000	    -19.32680829	     -2.02581403	      1.11090138	      0.44173154	      0.91632662	     -0.02869523	     26.13652186	     -1.82484782	      3.01928277	     18.84338171	      0.32887905	     12.65290778	    -12.31763070	     -7.49999987	     27.32271922	     -5.21436468	      7.54926889	     21.92787505	      0.38271362	     14.59500721	     -9.51172342	     -7.49999987	      0.46708708	      0.85538307	     -2.09249097	      0.63216291	     -7.57569621	    375.30142714	     31.86833205	     88.89801504	     -0.69115381	     -5.08062178	     -1.44336680	     29.02249936	     95.02977686
      4.92916670	    -19.45746059	     -1.99738013	      1.01906496	      0.44207088	      0.91624020	     -0.02779369	     26.34633900	     -1.78087133	      3.07779524	     19.00297318	      0.33166445	     12.62478441	    -12.60473672	     -7.49999987	     27.48054233	     -5.30273101	      7.26224943	     22.00532836	      0.38406543	     14.71567038	     -9.43364855	     -7.49999987	      0.72079670	      0.67261689	     -1.71033478	      0.22006715	     -7.23308125	    373.80211415	     31.79720022	     89.06817691	     -0.56896455	     -5.12108249	     -1.70647448	     28.52793884	     95.15358902
      4.93333330	    -19.64101156	     -1.97191745	      0.97037961	      0.44273133	      0.91572543	     -0.02810393	     26.57281739	     -1.78948576	      3.14946197	     19.12019109	      0.33371029	     12.53487241	    -13.04017831	     -7.49999987	     27.67208211	     -5.33942431	      7.04380043	     22.07835291	      0.38533995	     14.84452360	     -9.48539928	     -7.49999987	      1.07624756	      0.56914581	     -1.61686187	     -0.04797301	     -7.06025701	    373.30001431	     31.72154040	     88.46204117	     -0.75473477	     -5.20606072	     -1.80754591	     28.40214856	     94.43971844
      4.93750000	    -19.92822176	     -1.94780974	      0.90410588	      0.44317834	      0.91493089	     -0.02779125	     26.94330173	     -1.78707947	      3.10874621	     19.32012735	      0.33719983	     12.65312106	    -13.11641320	     -7.49999987	     28.02292250	     -5.37491095	      6.80824315	     22.23747165	      0.38811710	     15.14299729	     -9.31857575	     -7.49999987	      1.64321951	      0.45546061	     -1.80183819	      0.07223685	     -7.20881473	    374.78209665	     31.31063344	     89.26263731	     -1.16461384	     -5.32851871	     -2.05753950	     28.35842590	     95.35092122
      4.94166670	    -19.94141332	     -1.87269880	      0.80467829	      0.44295991	      0.91738295	     -0.02731854	     26.95892393	     -1.77189405	      3.30227407	     19.34424416	      0.33762075	     12.57127535	    -13.32088775	     -7.49999987	     27.91273978	     -5.35155089	      6.68347484	     22.07391591	      0.38526251	     15.11721997	     -9.38483185	     -7.49999987	      1.75862640	      0.32213978	     -1.57550770	     -0.13118911	     -7.02436432	    374.00738322	     31.20819867	     89.25985472	     -1.11848618	     -5.36396996	     -2.15038882	     27.98265264	     95.00087954
      4.94583330	    -19.91986305	     -1.86113785	      0.82910163	      0.44435410	      0.91717476	     -0.02617584	     26.83753375	     -1.70643952	      3.48792533	     19.25799430	      0.33611541	     12.56866010	    -13.47127143	     -7.49999987	     27.77921319	     -5.36199889	      6.70223769	     21.92741606	      0.38270561	     15.10020821	     -9.30818875	     -7.49999987	      1.91808862	      0.24282883	     -1.69801410	     -0.12025957	     -6.98151087	    374.46338594	     30.87519491	     89.48823207	     -1.39864485	     -5.45933330	     -2.39903122	     28.00093585	     94.98090552
      4.95000000	    -19.94826564	     -1.81892106	      0.79898602	      0.44430236	      0.91687584	     -0.02682959	     26.87314034	     -1.71635085	      3.54938003	     19.34282525	      0.33759599	     12.51564986	    -13.55383007	     -7.49999987	     27.73470635	     -5.36802181	      6.55331107	     21.85078913	      0.38136821	     15.17198923	     -9.02889622	     -7.49999987	      2.12397379	      0.13745055	     -1.73815334	     -0.18174517	     -6.91340180	    374.74274782	     30.60437342	     88.70716924	     -1.61452418	     -5.51231499	     -2.52428877	     27.87089084	     94.10032606
      4.95416670	    -20.03353384	     -1.75553147	      0.72409205	      0.44460641	      0.91515938	     -0.02585604	     27.03658182	     -1.71509383	      3.66998586	     19.51089704	      0.34052939	     12.52447465	    -13.74536326	     -7.49999987	     27.80802779	     -5.38870234	      6.38081048	     21.89294011	      0.38210389	     15.29975726	     -8.88462047	     -7.49999987	      2.39363800	     -0.00878548	     -1.72890806	     -0.24220972	     -6.85663283	    375.07587658	     30.34680517	     88.39146025	     -1.81913511	     -5.56766193	     -2.94909515	     27.77625465	     94.40354665
      4.95833330	    -20.21165711	     -1.73105012	      0.66707349	      0.44361258	      0.91379095	     -0.02693822	     27.33435313	     -1.74737124	      3.70693730	     19.68351245	      0.34354210	     12.45072345	    -13.99970413	     -7.49999987	     28.01169658	     -5.38557334	      6.35787715	     21.95209496	      0.38313633	     15.33236800	     -8.96654698	     -7.49999987	      2.69847395	     -0.04607805	     -1.47037350	     -0.71236482	     -6.47828432	    372.77412774	     30.44780439	     88.07507686	     -1.86211112	     -5.54799928	     -3.07732603	     27.63108856	     94.01211710
